# xmcd
#
# Track frame offsets:
#	150
#	30543
#	45224
#	56998
#	76673
#	87050
#	99691
#	112609
#	123401
#	142997
#	158063
#	169793
#	179606
#	189810
#	202142
#	216535
#	230671
#	242924
#	256628
#	271106
#	283572
#	297533
#	307762
#
# Disc length: 4286 seconds
#
# Revision: 2
# Processed by: cddbd v1.5.2PL0 Copyright (c) Steve Scherf et al.
# Submitted via: EasyCDDAExtractor 16.0.6.1
#
DISCID=3a10bc17
DTITLE=Various Artist - Dead Man Blues [ Funeral Songs] - Cd 02
DYEAR=2005
DGENRE=Blues
TTITLE0=Louis Armstrong - New Orleans Function
TTITLE1=Jelly Roll Morton - I Thought I Heard Buddy Bolden Say
TTITLE2=Eureka Brass Band - You Tell Me Your Dream
TTITLE3=Louis Armstrong - Elder Eatmore's Sermon On Generosity
TTITLE4=Clarence Williams - Do You Call Dat Religion?
TTITLE5=Louis Armstrong - Jonah And The Whale
TTITLE6=Clarence Williams - Old Time Religion
TTITLE7=Clarence Williams - Go Down, Moses
TTITLE8=Bunk Johnson - Lord, Lord, You've Been Too Good To Me
TTITLE9=Louis Armstrong - Basin Street Blues
TTITLE10=Louis Armstrong - Ol' Man Moses
TTITLE11=Clarence Williams - Lord Deliver Daniel
TTITLE12=Clarence Williams - Heaven, Heaven
TTITLE13=Clarence Williams - It's Me, Oh Lord
TTITLE14=New Orleans Wanderers - Perdido Street Blues
TTITLE15=Henry 'Red' Allen - Canal Street Blues
TTITLE16=George Lewis - We Shall Walk Through The Streets Of The City
TTITLE17=Louis Armstrong - Cain And Abel
TTITLE18=Louis Armstrong - When It's Sleepy Time Down South
TTITLE19=Kid Ory - South
TTITLE20=Louis Armstrong - Joseph 'N His Brothers
TTITLE21=Louis Armstrong - As Long As You Live, You'll Be Dead If You Die
TTITLE22=Louis Armstrong - Where The Blues Were Born In New Orleans
EXTD=
EXTT0=
EXTT1=
EXTT2=
EXTT3=
EXTT4=
EXTT5=
EXTT6=
EXTT7=
EXTT8=
EXTT9=
EXTT10=
EXTT11=
EXTT12=
EXTT13=
EXTT14=
EXTT15=
EXTT16=
EXTT17=
EXTT18=
EXTT19=
EXTT20=
EXTT21=
EXTT22=
PLAYORDER=
